<svg xmlns="http://www.w3.org/2000/svg" width="480" height="480"><path fill="#0b6065" d="m105.3 39.606 3.608-.019c3.274-.014 6.547-.014 9.82-.008 3.544.002 7.086-.012 10.629-.025 6.93-.02 13.859-.025 20.788-.023a10931 10931 0 0 0 21.797-.017l2.456-.003c15.308-.019 30.616-.018 45.923-.01 13.976.005 27.952-.016 41.927-.05q21.569-.05 43.136-.043c8.061.002 16.122-.003 24.183-.028a3541 3541 0 0 1 20.593-.006c3.496.01 6.991.01 10.487-.01 24.338-.118 44.077 3.1 62.353 20.636 15.736 16.919 16.908 33.934 16.784 56.154-.013 3.663.008 7.324.024 10.986.027 7.153.021 14.306.004 21.458q-.02 8.728-.01 17.456l.004 2.52.006 5.068c.017 15.804-.003 31.607-.035 47.411-.027 13.53-.022 27.06.005 40.59a14719 14719 0 0 1 .018 54.811c-.005 5.805.004 11.61.018 17.414q.027 10.626-.02 21.251c-.016 3.608-.022 7.214-.002 10.822.108 21.248-1.569 37.18-16.109 53.684-14.746 13.032-30.283 21.04-50.31 20.89l-3.64.02c-3.294.016-6.588.013-9.882.003-3.568-.007-7.135.009-10.703.022-6.975.021-13.949.021-20.923.013q-8.51-.008-17.02.001l-2.454.003-4.937.006c-15.405.016-30.81.007-46.215-.01-14.067-.014-28.134 0-42.2.03a16123 16123 0 0 1-48.345.027l-2.444-.001q-8.49-.002-16.978.022-10.36.027-20.721-.005c-3.518-.012-7.036-.015-10.554.004-23.226.097-41.602-2.981-59.6-18.88-15.842-15.914-18.493-31.899-18.445-53.526l.016-4.166c.009-3.664-.01-7.327-.026-10.99-.026-7.16-.025-14.32-.014-21.48q.011-8.736 0-17.472l-.003-2.52-.007-5.07c-.02-15.817-.007-31.635.015-47.452.018-13.542.007-27.085-.024-40.628a14901 14901 0 0 1-.037-52.334l.002-2.51c.003-5.81-.008-11.62-.025-17.43q-.032-10.635.008-21.272c.014-3.612.019-7.222-.004-10.834C38.105 94.271 38.66 78.091 53 63l2.437-2.625L58 58l1.777-1.828c12.18-11.886 28.849-16.648 45.524-16.566"/><path fill="#fbf8e6" d="M79 77c6.16-.816 9.206 1.77 13.875 5.313q2.26 1.662 4.523 3.32l2.312 1.708c2.862 2.074 5.795 4.027 8.74 5.98 17.118 11.41 25.978 24.64 30.784 44.605 3.769 15.13 10.678 27.813 23.266 37.262q1.861 1.433 3.719 2.87l1.898 1.469c12.952 10.134 23.965 20.032 28.946 36.16l.763 2.371c1.489 4.652 2.896 9.327 4.299 14.005C205.918 244.47 210.951 252.785 221 261l2.75 2.266a889 889 0 0 0 5.707 4.644c2.023 1.663 3.937 3.375 5.856 5.152 3.165 2.282 4.868 2.393 8.687 1.938.934-3.01 1.044-3.867 0-7-1.057-7.384 1.005-12.827 5-19 1.717-2.123 3.516-4.136 5.352-6.156 5.138-5.748 6.385-10.38 6.187-18.172-.732-4.986-2.49-9.282-4.38-13.926-2.601-6.522-3.618-11.521-1.304-18.223 2.616-5.767 6.34-10.364 10.34-15.226 5.012-6.378 5.682-12.473 4.805-20.297-1.244-6.54-2.956-13.02-5.156-19.3-.944-3.021-.727-4.7.156-7.7l4-1c5.407 7.715 10.13 15.838 14.832 23.993a189 189 0 0 0 2.338 3.91c3.382 5.59 4.047 9.707 2.83 16.097-2.589 6.486-5.786 12.418-10 18-2.639 6.597-2.422 12.969-.07 19.634 1.552 3.577 3.226 7.086 4.92 10.598 2.618 5.696 4.242 10.475 3.15 16.768-1.426 3.695-1.426 3.695-3.312 7.125-4.57 8.45-8.135 15.122-6.688 24.875 1.299 3.586 2.989 6.766 5 10l1.657 3.053c2.992 3.763 4.613 3.91 9.32 4.486l2.054.277q2.169.29 4.344.544c3.03.357 6.051.773 9.074 1.188q2.239.306 4.477.605c7.375.991 14.534 2.493 21.747 4.282 2.734.664 5.477 1.282 8.222 1.9C388.928 306.84 388.928 306.84 399 318c2.532 4.432 2.528 9.033 2 14-1.522 5.175-4.471 7.766-8.966 10.471-13.2 6.65-28.521 8.025-42.973 9.863-19.74 2.548-38.014 8.727-50.881 24.963A94 94 0 0 0 294 384l-1.145 1.922c-9.055 16.414-6.36 36.25-6.855 54.078h-99c3.24-25.92 3.24-25.92 5.32-35.582.706-3.55 1.182-7.076 1.618-10.668.836-6.703 2.155-13.23 3.599-19.827 1-4.607 1.86-9.19 2.525-13.86.736-5.144 1.895-10.066 3.22-15.086.735-3.046 1.248-6.068 1.718-9.164.686-4.404 1.778-8.35 3.27-12.536 3.435-10.71 4.344-21.829-.27-32.277-3.781-6.323-8.794-10.657-14.578-15.11-14.728-11.497-19.265-27.54-22.336-45.225-3.34-18.688-14.387-30.484-28.399-42.415-15.203-13.027-20.82-28.353-23.75-47.687-2.124-13.764-7.893-25.18-18.105-34.747-3.052-3.026-5.657-6.411-8.344-9.761a261 261 0 0 0-5.508-6.547l-1.532-1.77q-1.488-1.713-2.994-3.41C79 80.333 79 80.333 79 77"/><path fill="#f8f7e4" d="M181.688 293.313c12.96 10.665 12.96 10.665 15.312 17.687-8.894 4.032-20.324 4.665-30 4l-2.937-.172c-15.755-1.622-29.653-10.606-40.168-22.137-2.953-3.682-2.953-3.682-3.895-5.691l1-3c21.691-4.678 42.101-4.523 60.688 9.313"/><path fill="#106367" d="M290 300c3.313 1.813 3.313 1.813 6 4l1.64 1.332c2.309 2.832 1.827 5.713 1.704 9.227-.502 3.567-1.606 5.124-4.344 7.441-5.064 2.867-8.36 3.462-14 2-4.129-1.877-6.26-3.788-8-8-.638-3.168-.797-5.852 0-9 4.53-5.673 9.767-7.997 17-7"/></svg>